<svg width="29" height="29" viewBox="0 0 29 29" fill="none" xmlns="http://www.w3.org/2000/svg">
<g clip-path="url(#clip0_143_234)">
<path d="M24.4688 9.0625C25.0918 9.0625 25.6771 9.1805 26.2246 9.4165C26.7721 9.65251 27.2489 9.97819 27.6548 10.3936C28.0607 10.8089 28.3864 11.2904 28.6318 11.8379C28.8773 12.3854 29 12.9707 29 13.5938C29 14.1318 28.9103 14.6463 28.731 15.1372C28.5516 15.6281 28.3014 16.0671 27.9805 16.4541C27.6595 16.8411 27.2772 17.1763 26.8335 17.4595C26.3898 17.7427 25.9036 17.9362 25.375 18.04V19.4844C25.375 20.3245 25.2712 21.1411 25.0635 21.9341C24.8558 22.7271 24.5632 23.4823 24.1855 24.1997C23.8079 24.9172 23.3454 25.5638 22.7979 26.1396C22.2503 26.7155 21.6414 27.2205 20.9712 27.6548C20.3009 28.089 19.5693 28.4194 18.7764 28.646C17.9834 28.8726 17.1621 28.9906 16.3125 29C15.4535 29 14.6322 28.882 13.8486 28.646C13.0651 28.41 12.3382 28.0796 11.668 27.6548C10.9977 27.23 10.3888 26.7249 9.84131 26.1396C9.29378 25.5544 8.83122 24.9077 8.45361 24.1997C8.07601 23.4917 7.77865 22.7412 7.56152 21.9482C7.3444 21.1553 7.24056 20.334 7.25 19.4844V16.2417C6.08887 16.1379 5.0599 15.8594 4.16309 15.4062C3.26628 14.9531 2.50635 14.3584 1.8833 13.6221C1.26025 12.8857 0.792969 12.0314 0.481445 11.0591C0.169922 10.0868 0.0094401 9.03418 0 7.90137V0H4.53125C4.77669 0 4.9891 0.089681 5.16846 0.269043C5.34782 0.448405 5.4375 0.660807 5.4375 0.90625C5.4375 1.15169 5.34782 1.3641 5.16846 1.54346C4.9891 1.72282 4.77669 1.8125 4.53125 1.8125H1.8125V7.90137C1.8125 8.90202 1.94938 9.80827 2.22314 10.6201C2.49691 11.432 2.90755 12.1258 3.45508 12.7017C4.0026 13.2775 4.66341 13.7212 5.4375 14.0327C6.21159 14.3442 7.11784 14.5 8.15625 14.5C9.1097 14.5 9.97819 14.3537 10.7617 14.061C11.5452 13.7684 12.2108 13.3483 12.7583 12.8008C13.3058 12.2533 13.7354 11.5924 14.0469 10.8184C14.3584 10.0443 14.5094 9.17106 14.5 8.19873V1.8125H11.7812C11.5358 1.8125 11.3234 1.72282 11.144 1.54346C10.9647 1.3641 10.875 1.15169 10.875 0.90625C10.875 0.660807 10.9647 0.448405 11.144 0.269043C11.3234 0.089681 11.5358 0 11.7812 0H16.3125V7.90137C16.3125 9.03418 16.152 10.0868 15.8311 11.0591C15.5101 12.0314 15.0428 12.8857 14.4292 13.6221C13.8156 14.3584 13.0604 14.9531 12.1636 15.4062C11.2668 15.8594 10.2331 16.1379 9.0625 16.2417V19.4844C9.0625 20.4945 9.24186 21.4621 9.60059 22.3872C9.95931 23.3123 10.4644 24.1336 11.1157 24.8511C11.7671 25.5685 12.5317 26.1349 13.4097 26.5503C14.2876 26.9657 15.2552 27.1781 16.3125 27.1875C17.3604 27.1875 18.3232 26.9751 19.2012 26.5503C20.0791 26.1255 20.8438 25.5591 21.4951 24.8511C22.1465 24.1431 22.6515 23.3265 23.0103 22.4014C23.369 21.4762 23.5531 20.5039 23.5625 19.4844V18.04C23.0339 17.9268 22.5477 17.7332 22.104 17.4595C21.6603 17.1857 21.278 16.8553 20.957 16.4683C20.6361 16.0812 20.3859 15.6375 20.2065 15.1372C20.0272 14.6369 19.9375 14.1224 19.9375 13.5938C19.9375 12.9707 20.0555 12.3854 20.2915 11.8379C20.5275 11.2904 20.8485 10.8136 21.2544 10.4077C21.6603 10.0018 22.1418 9.67611 22.6987 9.43066C23.2557 9.18522 23.8457 9.0625 24.4688 9.0625ZM24.4688 16.3125C24.8464 16.3125 25.2004 16.2417 25.5308 16.1001C25.8612 15.9585 26.1491 15.765 26.3945 15.5195C26.64 15.2741 26.8335 14.9862 26.9751 14.6558C27.1167 14.3254 27.1875 13.9714 27.1875 13.5938C27.1875 13.2161 27.1167 12.8621 26.9751 12.5317C26.8335 12.2013 26.64 11.9134 26.3945 11.668C26.1491 11.4225 25.8612 11.229 25.5308 11.0874C25.2004 10.9458 24.8464 10.875 24.4688 10.875C24.0911 10.875 23.7371 10.9458 23.4067 11.0874C23.0763 11.229 22.7884 11.4225 22.543 11.668C22.2975 11.9134 22.104 12.2013 21.9624 12.5317C21.8208 12.8621 21.75 13.2161 21.75 13.5938C21.75 13.9714 21.8208 14.3254 21.9624 14.6558C22.104 14.9862 22.2975 15.2741 22.543 15.5195C22.7884 15.765 23.0763 15.9585 23.4067 16.1001C23.7371 16.2417 24.0911 16.3125 24.4688 16.3125Z" fill="#D84A43"/>
</g>
<defs>
<clipPath id="clip0_143_234">
<rect width="29" height="29" fill="white"/>
</clipPath>
</defs>
</svg>
