<svg width="30" height="30" viewBox="0 0 30 30" fill="none" xmlns="http://www.w3.org/2000/svg">
<path d="M12.5 5H9C7.6 5 6.9 5 6.365 5.2725C5.89462 5.51218 5.51218 5.89462 5.2725 6.365C5 6.9 5 7.6 5 9V21C5 22.4 5 23.1 5.2725 23.635C5.51218 24.1054 5.89462 24.4878 6.365 24.7275C6.89875 25 7.59875 25 8.99625 25H21.0037C22.4012 25 23.1 25 23.6337 24.7275C24.105 24.4875 24.4875 24.105 24.7275 23.635C25 23.1 25 22.4012 25 21.0037V17.5M20 6.25L12.5 13.75V17.5H16.25L23.75 10M20 6.25L23.75 2.5L27.5 6.25L23.75 10M20 6.25L23.75 10" stroke="#D84A43" stroke-width="2" stroke-linecap="round" stroke-linejoin="round"/>
</svg>
